<?xml version="1.0" standalone="no"?>
<!DOCTYPE svg PUBLIC "-//W3C//DTD SVG 20010904//EN"
 "http://www.w3.org/TR/2001/REC-SVG-20010904/DTD/svg10.dtd">
<svg version="1.0" xmlns="http://www.w3.org/2000/svg"
 width="414.000000pt" height="414.000000pt" viewBox="0 0 414.000000 414.000000"
 preserveAspectRatio="xMidYMid meet">
<metadata>
Created by potrace 1.14, written by Peter Selinger 2001-2017
</metadata>
<g transform="translate(0.000000,414.000000) scale(0.100000,-0.100000)"
fill="#000000" stroke="none">
<path d="M1901 4123 c-9 -14 -12 -15 -20 -5 -6 11 -14 8 -36 -15 -15 -15 -25
-23 -21 -16 11 21 -10 23 -32 2 -26 -24 -28 -34 -6 -21 15 9 54 5 54 -4 0 -17
-48 -72 -62 -71 -14 1 -12 5 8 24 28 26 31 35 7 26 -28 -10 -43 -24 -43 -42 0
-9 -15 -23 -33 -31 -23 -11 -33 -23 -35 -42 -3 -24 -8 -28 -35 -28 l-32 1 25
20 c14 12 25 24 25 28 3 30 32 81 47 81 10 0 18 7 18 16 0 29 -24 8 -75 -63
-27 -38 -63 -83 -78 -99 -15 -16 -31 -41 -34 -56 -3 -16 -9 -28 -14 -28 -4 0
-10 -9 -14 -19 -8 -27 -41 -36 -61 -17 -12 13 -43 16 -157 18 -185 2 -300 -2
-417 -14 -52 -5 -160 -12 -240 -14 -80 -2 -171 -9 -202 -14 -33 -6 -100 -8
-161 -4 -101 7 -107 6 -152 -20 -26 -14 -56 -26 -66 -26 -11 0 -19 -7 -19 -15
0 -8 -9 -15 -20 -15 -20 0 -20 -7 -20 -734 0 -634 2 -735 15 -739 8 -4 55 -1
105 5 74 9 93 9 100 -2 5 -8 14 -10 26 -5 17 8 17 9 -3 12 -15 3 -23 12 -23
24 0 16 7 19 40 19 34 0 40 -3 40 -21 0 -15 4 -19 16 -15 9 3 18 6 20 6 3 0 3
4 -1 9 -3 6 4 15 15 21 17 9 20 8 20 -10 0 -26 24 -26 51 1 11 11 27 18 36 15
8 -3 30 -6 49 -6 49 0 42 -18 -9 -23 -23 -2 20 -2 97 0 82 2 146 9 157 16 14
9 22 9 27 1 4 -6 24 -14 44 -18 21 -4 38 -10 38 -14 0 -21 193 4 224 29 41 32
88 48 113 38 14 -5 23 -5 23 1 0 5 9 12 20 15 11 3 20 13 20 20 0 8 8 20 18
27 9 7 18 23 19 34 2 17 -2 21 -17 17 -11 -3 -20 -14 -20 -24 0 -16 -8 -19
-45 -19 -50 0 -68 19 -42 45 19 18 115 23 143 7 10 -6 13 -12 7 -12 -18 0 -16
-20 1 -20 8 0 16 -6 19 -12 3 -7 4 5 2 27 -1 22 -1 32 2 22 4 -16 7 -15 29 9
14 14 23 33 20 41 -4 8 0 13 8 11 26 -5 119 105 144 170 12 32 41 79 63 103
58 63 109 144 109 173 0 30 -19 76 -32 76 -5 0 -6 5 -3 10 3 6 1 10 -5 10 -6
0 -8 5 -5 10 3 6 1 10 -4 10 -6 0 -11 7 -11 16 0 8 -3 13 -7 11 -11 -5 -43 30
-35 38 4 3 -2 3 -12 -1 -12 -5 -17 -4 -13 3 3 5 1 10 -6 11 -56 5 -97 20 -97
34 0 6 -8 7 -17 4 -9 -4 -20 -1 -25 6 -6 9 -11 9 -14 2 -3 -7 -35 -7 -107 3
-151 19 -156 20 -151 46 2 12 2 16 -2 10 -14 -30 -201 -7 -261 30 -28 18 -14
37 28 37 23 0 38 4 34 9 -3 6 11 13 32 16 21 3 49 8 63 11 61 13 130 24 188
30 40 4 58 10 50 15 -14 10 5 12 82 12 25 -1 49 4 53 11 6 8 10 8 14 -2 4 -9
9 -10 18 -2 10 8 15 4 20 -17 5 -16 8 -31 7 -35 -1 -5 11 -8 27 -8 27 0 30 3
45 68 9 37 20 96 26 132 17 107 34 163 55 174 11 6 23 16 27 21 4 6 11 10 15
10 4 1 18 6 30 13 11 6 42 13 67 14 25 2 46 6 46 10 0 4 13 3 29 -2 16 -4 32
-6 35 -2 3 3 6 1 6 -5 0 -6 14 -9 31 -8 36 3 167 -78 195 -120 9 -14 19 -23
22 -21 9 10 32 -23 26 -38 -3 -9 -1 -16 6 -16 6 0 8 -5 4 -12 -5 -8 -2 -9 9
-5 10 3 17 2 17 -3 0 -6 6 -10 13 -10 8 0 14 -6 14 -14 0 -8 -7 -12 -16 -9
-13 4 -13 2 2 -10 9 -8 17 -19 17 -26 0 -6 5 -11 11 -11 6 0 9 6 6 13 -3 8 0
14 7 14 7 0 11 -13 10 -31 -1 -17 5 -39 14 -50 9 -11 11 -16 5 -12 -20 11 -15
-1 9 -23 11 -11 25 -18 29 -15 4 2 7 -5 6 -16 -1 -11 -5 -20 -10 -20 -4 0 1
-10 13 -22 19 -21 21 -21 33 -4 12 16 13 16 13 -3 0 -11 -5 -17 -10 -14 -5 4
-7 -1 -3 -11 4 -10 3 -15 -3 -11 -6 3 -10 1 -10 -4 0 -6 6 -11 13 -11 9 0 8
-3 -2 -9 -7 -5 -10 -14 -7 -20 4 -6 0 -11 -8 -11 -12 0 -16 11 -17 38 -1 33
-2 34 -9 12 -4 -14 -5 -35 -3 -48 4 -17 2 -21 -11 -16 -9 3 -16 1 -16 -4 0 -6
8 -13 18 -15 9 -2 4 -3 -11 -1 -17 2 -26 0 -22 -6 3 -6 -6 -15 -21 -20 -28
-11 -39 -7 -39 13 0 7 -10 13 -22 15 -15 2 -22 -1 -20 -10 2 -7 2 -10 0 -5 -3
4 -8 5 -13 2 -5 -3 -7 7 -5 22 2 25 1 25 -10 9 -8 -10 -11 -25 -8 -34 3 -13 1
-12 -12 3 -17 20 -17 20 -10 -3 6 -20 4 -22 -19 -18 -15 3 -24 1 -21 -5 4 -5
-1 -9 -9 -9 -8 0 -17 9 -21 19 -6 19 -7 19 -35 3 -15 -9 -26 -20 -24 -24 3 -4
-2 -5 -10 -2 -9 4 -18 0 -22 -9 -3 -9 -13 -13 -26 -9 -16 4 -19 2 -14 -9 4 -8
-1 -5 -11 7 -24 27 -39 21 -65 -29 -22 -45 -31 -106 -18 -127 5 -9 1 -23 -11
-39 -12 -14 -16 -27 -10 -29 7 -2 6 -10 -2 -23 -10 -16 -9 -22 3 -30 12 -8 11
-9 -5 -7 -12 2 -19 -2 -18 -9 2 -7 -2 -13 -8 -13 -5 0 -7 -4 -4 -10 3 -5 1
-10 -5 -10 -13 0 -40 -25 -41 -37 -1 -4 -5 -7 -11 -5 -5 1 -7 -2 -3 -7 8 -13
-16 -51 -32 -51 -7 0 -13 -6 -13 -14 0 -8 -9 -17 -19 -21 -22 -7 -36 -39 -25
-56 4 -8 3 -9 -4 -5 -7 4 -12 2 -12 -4 0 -6 -4 -8 -10 -5 -12 7 -50 -12 -50
-25 0 -6 7 -10 15 -10 18 0 20 -20 3 -20 -22 -1 -52 -50 -39 -63 16 -16 14
-24 -9 -30 -12 -3 -21 -14 -22 -29 -2 -40 0 -82 7 -104 5 -15 2 -21 -9 -21
-11 0 -13 4 -6 12 7 8 5 12 -4 12 -14 0 -13 -37 1 -60 3 -5 -4 -6 -16 -2 -13
4 -21 2 -21 -5 0 -6 -4 -8 -10 -5 -6 3 -7 -1 -4 -9 3 -9 1 -16 -5 -16 -6 0
-10 -3 -9 -8 2 -4 -7 -18 -19 -32 -13 -13 -23 -27 -23 -32 0 -14 57 -37 116
-47 73 -12 105 -24 124 -48 17 -20 24 -67 9 -57 -5 3 -8 -8 -7 -26 3 -41 42
-74 69 -59 11 5 17 15 13 22 -4 7 3 2 15 -10 11 -12 21 -29 21 -38 0 -8 6 -15
13 -15 18 0 46 -36 38 -49 -5 -7 -32 -9 -77 -7 -82 5 -97 8 -106 21 -4 6 -8
-2 -8 -17 0 -19 9 -33 33 -50 55 -39 56 -40 36 -72 -14 -23 -15 -33 -6 -47 7
-11 18 -19 26 -19 9 0 11 -7 8 -21 -4 -16 -3 -19 5 -11 6 6 17 8 25 5 12 -5
12 -7 2 -14 -20 -12 -8 -18 39 -21 l43 -3 -25 -22 c-14 -12 -26 -26 -26 -31 0
-15 -50 -37 -92 -41 -16 -2 -7 -23 21 -54 22 -22 27 -35 20 -44 -8 -9 0 -15
30 -23 23 -6 41 -14 41 -19 0 -4 10 -13 23 -19 20 -10 20 -11 2 -9 -14 1 -19
-3 -17 -15 2 -10 -2 -18 -8 -18 -5 0 -10 -5 -10 -11 0 -7 11 -9 28 -5 15 3 21
3 14 0 -6 -3 -10 -10 -6 -15 3 -5 -2 -9 -11 -9 -11 0 -15 -6 -11 -18 5 -16 1
-18 -26 -16 -29 3 -30 3 -8 -4 24 -8 24 -9 -12 -21 -30 -10 -36 -16 -33 -37 4
-38 20 -50 40 -30 9 9 23 16 30 16 11 0 11 -5 -1 -30 -13 -26 -18 -28 -36 -19
-11 6 -22 8 -25 5 -3 -3 -12 2 -20 10 -14 13 -17 13 -30 -3 -8 -10 -12 -12 -8
-5 4 7 0 12 -9 12 -24 0 0 -69 39 -110 48 -51 54 -69 45 -120 -7 -38 -5 -48
13 -71 28 -33 71 -51 157 -66 33 -6 27 -6 160 0 63 3 153 1 200 -5 89 -12 122
-13 180 -4 19 3 52 0 73 -5 39 -10 95 1 127 27 8 6 30 19 49 29 18 9 46 30 62
46 36 37 73 51 113 44 35 -7 240 48 267 72 9 7 23 11 32 8 11 -5 20 5 33 34
15 34 24 42 53 47 61 10 71 15 71 34 0 10 7 20 15 24 8 3 15 13 15 22 0 11 5
14 16 10 13 -5 15 -1 10 20 -5 17 -3 23 4 19 5 -3 10 -1 10 4 0 18 18 12 23
-6 4 -14 5 -12 6 5 1 20 40 72 42 55 0 -5 4 2 9 15 5 12 18 25 27 29 10 3 43
33 74 65 31 32 63 58 72 58 10 0 16 3 15 7 -2 5 5 19 15 33 9 13 17 19 17 13
0 -6 7 -14 16 -17 14 -5 15 -4 4 9 -10 12 -9 16 3 21 9 3 21 3 27 -1 5 -3 10
-1 10 5 0 7 7 9 16 6 9 -3 25 1 37 9 24 17 41 20 32 6 -3 -6 7 -6 27 0 44 12
48 12 48 -6 0 -9 -6 -12 -17 -8 -11 4 -14 3 -9 -5 9 -15 36 -16 36 -2 0 5 3 9
8 9 4 -1 14 -1 22 1 11 1 9 4 -5 10 -16 7 -17 9 -3 9 9 1 22 -7 28 -16 9 -15
10 -14 5 7 -6 23 -5 24 8 7 11 -14 16 -15 21 -5 3 7 2 0 -1 -17 -5 -24 -81
-153 -103 -175 -3 -3 -11 -15 -18 -27 -21 -39 2 -25 28 16 13 22 32 42 41 44
15 4 16 0 8 -27 -5 -17 -15 -36 -21 -41 -7 -6 -14 -17 -16 -25 -2 -8 -12 -24
-23 -36 -10 -11 -19 -25 -19 -31 0 -5 -12 -16 -27 -24 l-28 -13 30 -4 c44 -4
167 52 164 75 -5 55 2 80 26 93 25 14 26 19 10 110 -2 14 -2 19 1 12 3 -6 11
-9 17 -5 6 4 8 0 5 -9 -5 -13 -3 -14 17 -4 18 8 21 14 13 24 -6 7 -18 10 -27
7 -8 -3 -12 -3 -9 1 4 3 1 13 -7 20 -12 12 -12 19 -1 46 7 17 21 35 30 40 19
11 22 38 4 39 -7 1 -2 5 12 9 18 6 20 8 7 9 -17 1 -17 2 -3 17 14 14 16 120
16 1021 0 889 -2 1004 -15 999 -8 -3 -15 -1 -15 4 0 6 7 10 15 10 13 0 15 38
15 285 l0 285 -831 0 -832 -1 -19 -24 c-11 -14 -24 -25 -31 -25 -6 0 -1 9 11
20 12 12 22 23 22 26 0 2 -97 4 -216 3 -169 -1 -216 -4 -220 -14 -8 -21 -32
-26 -30 -7 2 26 -78 30 -93 5z m1539 -8 c-7 -9 -15 -13 -17 -11 -7 7 7 26 19
26 6 0 6 -6 -2 -15z m-1328 -17 c-7 -7 -12 -8 -12 -2 0 14 12 26 19 19 2 -3
-1 -11 -7 -17z m282 7 c-4 -8 -10 -15 -15 -15 -5 0 -9 7 -9 15 0 8 7 15 15 15
9 0 12 -6 9 -15z m136 5 c0 -5 -2 -10 -4 -10 -3 0 -8 5 -11 10 -3 6 -1 10 4
10 6 0 11 -4 11 -10z m1520 -4 c0 -3 -4 -8 -10 -11 -5 -3 -10 -1 -10 4 0 6 5
11 10 11 6 0 10 -2 10 -4z m-460 -16 c-20 -13 -33 -13 -25 0 3 6 14 10 23 10
15 0 15 -2 2 -10z m420 6 c0 -3 -4 -8 -10 -11 -5 -3 -10 -1 -10 4 0 6 5 11 10
11 6 0 10 -2 10 -4z m-2060 -42 c0 -3 -9 -18 -21 -32 -18 -23 -20 -24 -17 -7
1 11 7 23 12 27 6 4 4 14 -5 24 -13 16 -12 16 9 5 12 -6 22 -14 22 -17z m647
4 c-3 -8 -6 -5 -6 6 -1 11 2 17 5 13 3 -3 4 -12 1 -19z m-147 -4 c0 -8 -5 -12
-10 -9 -6 4 -8 11 -5 16 9 14 15 11 15 -7z m1054 2 c-21 -15 -30 -14 -19 3 3
6 14 11 23 11 13 0 13 -2 -4 -14z m-1424 -4 c0 -4 -10 -13 -22 -21 -23 -14
-23 -14 -4 8 20 22 26 25 26 13z m1389 -5 c-2 -1 -13 -9 -24 -17 -19 -14 -19
-14 -6 3 7 9 18 17 24 17 6 0 8 -1 6 -3z m211 -7 c0 -5 -4 -10 -10 -10 -5 0
-10 5 -10 10 0 6 5 10 10 10 6 0 10 -4 10 -10z m-1708 -22 c-7 -7 -12 -8 -12
-2 0 14 12 26 19 19 2 -3 -1 -11 -7 -17z m305 -2 c-12 -14 -24 -23 -26 -20 -5
5 30 44 40 44 4 0 -2 -11 -14 -24z m-387 4 c0 -5 -7 -10 -15 -10 -8 0 -15 5
-15 10 0 6 7 10 15 10 8 0 15 -4 15 -10z m450 6 c0 -3 -4 -8 -10 -11 -5 -3
-10 -1 -10 4 0 6 5 11 10 11 6 0 10 -2 10 -4z m490 -16 c0 -5 -4 -10 -10 -10
-5 0 -10 5 -10 10 0 6 5 10 10 10 6 0 10 -4 10 -10z m-170 -21 c0 -5 -4 -9 -8
-9 -5 0 -9 7 -9 15 0 8 4 12 9 9 4 -3 8 -9 8 -15z m-720 -4 c-8 -9 -9 -15 -2
-15 6 0 14 5 17 10 3 6 11 10 18 10 6 0 3 -6 -8 -14 -11 -7 -28 -13 -38 -13
-16 0 -16 2 0 19 19 22 31 24 13 3z m1710 5 c0 -5 -5 -10 -11 -10 -5 0 -7 5
-4 10 3 6 8 10 11 10 2 0 4 -4 4 -10z m-1770 -31 c-7 -11 -14 -18 -17 -15 -3
3 0 12 7 21 18 21 23 19 10 -6z m846 -7 c-4 -3 -14 2 -24 12 -16 18 -16 18 6
6 13 -6 21 -14 18 -18z m994 23 c0 -11 -59 -34 -65 -25 -3 6 0 12 7 14 7 3 20
7 28 9 21 7 30 8 30 2z m-1900 -15 c0 -5 -8 -10 -17 -10 -15 0 -16 2 -3 10 19
12 20 12 20 0z m1093 -5 c-3 -9 -8 -14 -10 -11 -3 3 -2 9 2 15 9 16 15 13 8
-4z m-1170 -10 c-3 -9 -8 -14 -10 -11 -3 3 -2 9 2 15 9 16 15 13 8 -4z m67
-35 c0 -5 -4 -10 -10 -10 -5 0 -10 5 -10 10 0 6 5 10 10 10 6 0 10 -4 10 -10z
m326 -28 l-29 -27 23 32 c13 18 26 30 29 28 3 -3 -8 -18 -23 -33z m-426 -7
c-7 -14 -17 -25 -21 -25 -5 0 0 13 9 29 20 36 31 32 12 -4z m-72 6 c17 -10 12
-53 -6 -59 -11 -3 -11 -1 0 18 11 18 11 23 -6 36 -21 15 -10 20 12 5z m437 -1
c3 -5 1 -10 -4 -10 -6 0 -11 5 -11 10 0 6 2 10 4 10 3 0 8 -4 11 -10z m-280
-10 c3 -5 -3 -10 -15 -10 -12 0 -18 5 -15 10 3 6 10 10 15 10 5 0 12 -4 15
-10z m1899 -5 c-6 -16 -24 -21 -24 -7 0 11 11 22 21 22 5 0 6 -7 3 -15z
m-1714 -45 c0 -5 -7 -10 -15 -10 -8 0 -15 5 -15 10 0 6 7 10 15 10 8 0 15 -4
15 -10z m1815 -10 c-3 -5 -11 -10 -16 -10 -6 0 -7 5 -4 10 3 6 11 10 16 10 6
0 7 -4 4 -10z m-35 -10 c0 -5 -4 -10 -10 -10 -5 0 -10 5 -10 10 0 6 5 10 10
10 6 0 10 -4 10 -10z m290 -90 c0 -5 -2 -10 -4 -10 -3 0 -8 5 -11 10 -3 6 -1
10 4 10 6 0 11 -4 11 -10z m67 -67 c-9 -9 -19 -14 -23 -11 -10 10 6 28 24 28
15 0 15 -1 -1 -17z m-1867 -17 c0 -2 -7 -7 -16 -10 -8 -3 -12 -2 -9 4 6 10 25
14 25 6z m215 -1052 c13 -5 14 -8 3 -15 -20 -13 -35 -11 -42 6 -6 16 10 20 39
9z m-85 -13 c0 -5 8 -8 17 -7 9 0 22 -8 27 -19 6 -11 18 -20 26 -19 31 1 80
16 80 24 0 20 40 -5 49 -31 5 -16 14 -29 18 -28 20 3 34 -2 28 -11 -3 -5 -1
-10 4 -10 6 0 11 -4 11 -10 0 -5 -6 -7 -14 -4 -9 3 -16 -5 -21 -23 -3 -15 -12
-31 -18 -35 -7 -4 -5 -9 8 -14 25 -10 35 -23 35 -51 0 -15 6 -23 18 -23 9 0
24 -5 32 -10 11 -8 9 -9 -11 -5 -19 5 -26 2 -26 -10 0 -9 6 -14 13 -11 8 3 16
0 20 -6 4 -6 3 -8 -4 -4 -6 3 -17 -1 -25 -9 -19 -18 -31 -20 -20 -2 22 35 -1
51 -32 21 -12 -12 -13 -19 -4 -30 9 -11 8 -14 -4 -14 -20 0 -41 -26 -27 -35 6
-4 9 -2 8 3 -2 6 2 9 7 9 6 -1 9 -8 7 -15 -2 -8 1 -12 6 -8 5 3 9 -1 9 -9 0
-8 -5 -15 -10 -15 -5 0 -6 -7 -3 -16 5 -14 4 -15 -8 -5 -11 9 -16 9 -22 -1 -4
-7 -4 -10 0 -6 5 4 14 2 21 -5 19 -18 -5 -35 -42 -30 -24 4 -34 0 -47 -18 -9
-14 -12 -25 -6 -27 5 -2 10 -13 10 -25 0 -18 -2 -19 -10 -7 -7 11 -10 7 -10
-18 0 -41 -16 -72 -35 -72 -8 0 -15 -4 -15 -10 0 -10 14 -14 38 -11 6 1 12 -3
12 -9 0 -5 -7 -10 -15 -10 -18 0 -20 -21 -3 -38 9 -9 2 -12 -32 -13 -31 0 -39
-3 -26 -8 26 -10 30 -41 5 -41 -10 0 -19 -7 -19 -15 0 -8 4 -15 8 -15 5 0 18
-8 28 -17 24 -22 27 -90 4 -85 -11 3 -10 -1 4 -17 19 -20 13 -52 -6 -33 -6 6
-17 8 -26 5 -10 -4 -13 -2 -8 5 3 6 2 13 -4 17 -5 3 -10 -2 -10 -11 0 -14 -3
-15 -12 -6 -9 9 -7 17 10 35 17 18 19 26 10 35 -7 7 -8 12 -4 12 5 0 2 8 -5
17 -8 10 -9 14 -2 10 14 -9 27 9 18 23 -5 8 -12 7 -23 -2 -9 -7 -13 -8 -10 -3
8 14 -10 57 -21 50 -5 -3 -13 -1 -16 5 -4 6 -3 10 2 9 21 -4 33 2 33 16 0 10
-10 15 -31 15 -24 0 -30 4 -25 15 4 11 -1 15 -19 15 -14 0 -29 8 -35 20 -6 11
-16 18 -22 14 -7 -4 -6 -10 3 -16 10 -6 7 -7 -10 -3 -14 4 -21 3 -18 -2 4 -5
0 -10 -8 -10 -8 0 -12 4 -9 8 2 4 0 10 -6 14 -6 4 -8 11 -4 16 10 17 -18 41
-42 35 -18 -5 -21 -2 -21 19 0 14 3 22 8 19 5 -3 9 0 9 5 0 6 -4 11 -10 11 -5
0 -7 7 -4 15 4 8 1 22 -6 30 -10 12 -10 15 1 15 12 0 12 2 0 9 -9 6 -10 11 -2
15 15 10 14 27 -1 24 -9 -2 -12 10 -11 42 l3 45 -14 -30 c-13 -28 -14 -26 -10
39 2 39 7 72 11 75 5 3 8 13 9 21 1 8 4 26 8 40 6 19 5 21 -3 10 -6 -8 -11
-10 -12 -5 0 6 -2 20 -3 33 -2 13 1 25 6 28 4 3 8 -2 8 -10 0 -8 5 -18 12 -22
7 -5 9 -2 6 7 -3 8 1 26 9 40 8 13 12 16 9 6 -5 -16 -4 -16 18 -2 12 8 29 28
36 43 7 16 15 22 17 14 3 -6 9 -9 14 -6 6 3 17 0 26 -8 11 -8 14 -9 10 -1 -5
8 4 14 27 18 49 10 71 36 56 67 -11 21 -10 21 14 -4 16 -17 23 -33 19 -44 -5
-14 -3 -14 15 2 25 21 27 25 11 22 -6 -2 -13 2 -16 9 -3 7 4 10 19 7 18 -3 17
-2 -4 7 -27 10 -38 29 -18 29 6 0 10 -4 10 -9z m143 -6 c-3 -9 -8 -14 -10 -11
-3 3 -2 9 2 15 9 16 15 13 8 -4z m-263 -70 c-14 -7 -27 -11 -30 -9 -6 7 22 24
40 23 9 0 5 -6 -10 -14z m-90 -25 c0 -5 -8 -10 -17 -10 -15 0 -16 2 -3 10 19
12 20 12 20 0z m541 -33 c-10 -9 -11 -8 -5 6 3 10 9 15 12 12 3 -3 0 -11 -7
-18z m-1174 -89 c-3 -8 -6 -5 -6 6 -1 11 2 17 5 13 3 -3 4 -12 1 -19z m534
-41 c-10 -9 -11 -8 -5 6 3 10 9 15 12 12 3 -3 0 -11 -7 -18z m459 -252 c-6 -7
-7 -21 -4 -31 4 -11 4 -16 -1 -12 -4 4 -14 0 -22 -10 -13 -15 -13 -15 -3 6 9
18 8 27 -1 38 -6 8 -9 17 -5 21 3 3 6 0 6 -8 1 -10 4 -9 11 4 6 9 15 15 20 11
6 -4 6 -10 -1 -19z m-839 -104 c0 -3 3 -17 5 -31 6 -34 -3 -57 -18 -42 -17 17
-18 79 -1 79 7 0 13 -3 14 -6z m786 -191 c3 -10 2 -11 -4 -3 -4 6 -22 13 -38
16 -27 4 -27 5 4 3 21 0 36 -7 38 -16z m153 -13 c0 -1 -11 -3 -24 -3 -17 -1
-23 2 -19 12 4 10 10 11 24 3 10 -5 19 -11 19 -12z m38 -2 c-3 -3 -9 2 -12 12
-6 14 -5 15 5 6 7 -7 10 -15 7 -18z m-33 -25 c-3 -5 -13 -10 -21 -10 -8 0 -14
-10 -14 -26 0 -14 -4 -23 -10 -19 -12 7 -2 36 18 53 19 14 36 16 27 2z m-839
-21 c42 -11 94 -55 94 -81 0 -14 -141 -1 -156 15 -6 7 -14 27 -17 45 -7 37 3
40 79 21z m136 -61 c-7 -7 -12 -8 -12 -2 0 6 3 14 7 17 3 4 9 5 12 2 2 -3 -1
-11 -7 -17z m458 -57 c0 -5 -8 -11 -18 -13 -10 -3 -19 0 -19 6 0 7 9 13 19 13
10 1 18 -2 18 -6z m17 -23 c-3 -8 -6 -5 -6 6 -1 11 2 17 5 13 3 -3 4 -12 1
-19z m-32 -38 c3 -5 1 -10 -4 -10 -6 0 -11 5 -11 10 0 6 2 10 4 10 3 0 8 -4
11 -10z m-555 -44 c0 -3 -4 -8 -10 -11 -5 -3 -10 -1 -10 4 0 6 5 11 10 11 6 0
10 -2 10 -4z m40 -176 c0 -5 -7 -10 -15 -10 -8 0 -15 5 -15 10 0 6 7 10 15 10
8 0 15 -4 15 -10z m30 -5 c0 -8 -4 -15 -10 -15 -5 0 -7 7 -4 15 4 8 8 15 10
15 2 0 4 -7 4 -15z m17 -7 c-3 -8 -6 -5 -6 6 -1 11 2 17 5 13 3 -3 4 -12 1
-19z m34 5 c13 -16 12 -17 -3 -4 -10 7 -18 15 -18 17 0 8 8 3 21 -13z m-40
-46 c-10 -9 -11 -8 -5 6 3 10 9 15 12 12 3 -3 0 -11 -7 -18z m-57 -136 c3 -4
-6 -6 -19 -3 -14 2 -25 6 -25 8 0 8 39 4 44 -5z m-104 -105 c0 -2 -8 -10 -17
-17 -16 -13 -17 -12 -4 4 13 16 21 21 21 13z m65 -46 c8 -13 -5 -13 -25 0 -13
8 -13 10 2 10 9 0 20 -4 23 -10z"/>
<path d="M2602 2294 c-14 -16 -5 -18 17 -5 7 5 9 11 5 14 -5 3 -15 -1 -22 -9z"/>
<path d="M2121 1957 c-13 -21 -12 -21 5 -5 10 10 16 20 13 22 -3 3 -11 -5 -18
-17z"/>
<path d="M2178 1893 c7 -3 16 -2 19 1 4 3 -2 6 -13 5 -11 0 -14 -3 -6 -6z"/>
<path d="M2400 1865 c0 -8 5 -15 10 -15 6 0 10 7 10 15 0 8 -4 15 -10 15 -5 0
-10 -7 -10 -15z"/>
<path d="M2360 1805 c0 -8 4 -15 10 -15 5 0 7 7 4 15 -4 8 -8 15 -10 15 -2 0
-4 -7 -4 -15z"/>
<path d="M2257 3413 c3 -7 6 -13 8 -13 2 0 5 6 8 13 3 8 -1 14 -8 14 -7 0 -11
-6 -8 -14z"/>
<path d="M1267 2293 c-11 -10 -8 -33 3 -33 6 0 10 7 10 15 0 18 16 20 23 3 3
-8 6 -6 6 5 1 17 -28 24 -42 10z"/>
<path d="M1755 1799 c-6 -8 -4 -10 5 -4 10 6 12 4 6 -11 -6 -15 -5 -17 5 -6 9
9 10 15 2 23 -8 8 -13 7 -18 -2z"/>
<path d="M1760 1280 c0 -5 5 -10 11 -10 5 0 7 5 4 10 -3 6 -8 10 -11 10 -2 0
-4 -4 -4 -10z"/>
<path d="M4092 1261 c-8 -4 -1 -13 18 -25 26 -15 30 -15 30 -2 0 19 -32 37
-48 27z"/>
<path d="M1269 1198 c-21 -5 -47 -20 -59 -33 l-22 -23 26 -41 c15 -23 31 -41
36 -41 6 0 10 -6 10 -14 0 -23 132 -37 146 -15 5 8 9 8 14 -1 5 -8 16 4 32 33
23 41 24 46 10 73 -30 59 -51 74 -106 73 -28 -1 -67 -5 -87 -11z"/>
<path d="M4090 1195 c0 -8 -9 -19 -20 -25 -22 -12 -24 -18 -11 -38 6 -11 15
-10 44 5 42 21 43 25 20 53 -21 24 -33 26 -33 5z"/>
<path d="M1740 1170 c0 -6 7 -10 15 -10 8 0 15 2 15 4 0 2 -7 6 -15 10 -8 3
-15 1 -15 -4z"/>
<path d="M3860 1140 c-6 -11 -8 -20 -6 -20 3 0 10 9 16 20 6 11 8 20 6 20 -3
0 -10 -9 -16 -20z"/>
<path d="M3830 1088 c-12 -22 -12 -22 6 -6 10 10 15 20 12 24 -4 3 -12 -5 -18
-18z"/>
<path d="M3802 1048 c-19 -19 -14 -30 8 -18 11 6 20 15 20 20 0 14 -14 12 -28
-2z"/>
<path d="M4067 294 c-1 -1 -26 -5 -55 -9 -29 -3 -62 -9 -75 -14 -12 -5 -26 -9
-32 -9 -5 0 -11 -5 -13 -11 -3 -10 44 -9 158 5 73 8 90 14 90 29 0 10 -10 14
-35 13 -19 -1 -36 -2 -38 -4z"/>
<path d="M3807 236 c-17 -13 -16 -14 7 -12 15 0 26 7 26 14 0 15 -10 15 -33
-2z"/>
<path d="M3855 240 c3 -5 10 -10 16 -10 5 0 9 5 9 10 0 6 -7 10 -16 10 -8 0
-12 -4 -9 -10z"/>
<path d="M3725 210 c-8 -13 5 -13 25 0 13 8 13 10 -2 10 -9 0 -20 -4 -23 -10z"/>
<path d="M3635 200 c-3 -5 -1 -10 4 -10 6 0 11 5 11 10 0 6 -2 10 -4 10 -3 0
-8 -4 -11 -10z"/>
<path d="M3675 200 c-3 -6 1 -7 9 -4 18 7 21 14 7 14 -6 0 -13 -4 -16 -10z"/>
<path d="M3505 170 c-3 -5 -2 -10 4 -10 5 0 13 5 16 10 3 6 2 10 -4 10 -5 0
-13 -4 -16 -10z"/>
<path d="M2150 50 c34 -25 92 -51 85 -38 -6 10 -5 11 6 0 7 -6 24 -12 39 -11
l25 0 -22 11 c-13 6 -23 14 -23 19 0 4 -19 10 -42 14 -24 3 -52 9 -63 11 -17
4 -17 3 -5 -6z"/>
</g>
</svg>
